<svg width="130" height="80" viewBox="0 0 130 80" fill="none" xmlns="http://www.w3.org/2000/svg">
<path d="M107 155.899C101.62 155.9 96.4365 153.875 92.4826 150.226C88.5288 146.578 86.0942 141.574 85.6638 136.211C71.392 131.16 59.3637 121.228 51.7023 108.17C44.0408 95.1126 41.2387 79.7679 43.7907 64.8451C46.3427 49.9222 54.0846 36.3807 65.6499 26.6109C77.2152 16.8411 91.8601 11.4713 107 11.4492C123.102 11.4469 138.617 17.4957 150.469 28.3962C162.321 39.2966 169.644 54.2529 170.986 70.2992C171.03 70.9952 170.93 71.693 170.69 72.348C170.451 73.0031 170.078 73.6012 169.595 74.1043C169.112 74.6075 168.529 75.0046 167.885 75.2706C167.24 75.5366 166.547 75.6655 165.85 75.6492C164.416 75.6133 163.048 75.0458 162.01 74.0571C160.971 73.0684 160.338 71.729 160.232 70.2992C159.279 60.8387 155.822 51.803 150.217 44.1224C144.611 36.4419 137.06 30.394 128.341 26.6014C119.622 22.8087 110.049 21.4084 100.609 22.5445C91.1686 23.6807 82.2016 27.3122 74.6311 33.0653C67.0606 38.8185 61.1602 46.4853 57.5373 55.2764C53.9143 64.0676 52.6998 73.6655 54.0186 83.082C55.3375 92.4986 59.1422 101.393 65.0409 108.851C70.9397 116.309 78.7194 122.059 87.5791 125.511C89.1912 122.028 91.7105 119.042 94.873 116.867C98.0355 114.692 101.725 113.407 105.554 113.148C109.384 112.889 113.213 113.664 116.64 115.393C120.066 117.122 122.965 119.741 125.032 122.975C127.099 126.209 128.258 129.94 128.388 133.776C128.518 137.612 127.613 141.413 125.769 144.779C123.925 148.146 121.21 150.954 117.908 152.911C114.606 154.867 110.838 155.899 107 155.899ZM53.5959 129.149H54.5696C60.8864 135.346 68.2513 140.374 76.3227 144.001C78.6948 151.827 83.9646 158.453 91.0563 162.526C98.1479 166.599 106.527 167.811 114.482 165.916C122.437 164.021 129.369 159.161 133.863 152.328C138.356 145.495 140.073 137.204 138.661 129.149H160.5C166.175 129.149 171.618 131.404 175.632 135.417C179.645 139.43 181.9 144.874 181.9 150.549C181.9 168.643 172.986 182.285 159.055 191.177C145.338 199.919 126.848 204.049 107 204.049C87.1511 204.049 68.6615 199.919 54.9441 191.177C41.0127 182.296 32.0996 168.632 32.0996 150.549C32.0996 138.64 41.7617 129.149 53.5959 129.149ZM149.8 75.6492C149.802 82.8893 147.968 90.0116 144.468 96.3497C140.969 102.688 135.919 108.035 129.791 111.89C126.806 108.882 123.256 106.495 119.344 104.866C115.432 103.237 111.237 102.399 107 102.399C102.762 102.399 98.5669 103.237 94.6552 104.866C90.7435 106.495 87.1931 108.882 84.2086 111.89C76.0811 106.779 69.9082 99.0835 66.682 90.0407C65.0362 85.4212 64.1965 80.5532 64.1996 75.6492C64.1996 64.298 68.7089 53.4116 76.7354 45.385C84.762 37.3585 95.6483 32.8492 107 32.8492C118.351 32.8492 129.237 37.3585 137.264 45.385C145.29 53.4116 149.8 64.298 149.8 75.6492Z" fill="#FFA500"/>
</svg>
