<svg width="48" height="48" viewBox="0 0 48 48" fill="none" xmlns="http://www.w3.org/2000/svg">
<g id="arrow-right">
<path id="Vector" d="M7.68031 24.0003C7.68031 33.0243 14.9763 40.3203 24.0003 40.3203C33.0243 40.3203 40.3203 33.0243 40.3203 24.0003C40.3203 14.9763 33.0243 7.68031 24.0003 7.68031C14.9763 7.68031 7.68031 14.9763 7.68031 24.0003ZM38.4003 24.0003C38.4003 31.9683 31.9683 38.4003 24.0003 38.4003C16.0323 38.4003 9.60031 31.9683 9.60031 24.0003C9.60031 16.0323 16.0323 9.60031 24.0003 9.60031C31.9683 9.60031 38.4003 16.0323 38.4003 24.0003Z" fill="#454545"/>
<path id="Vector_2" d="M22.3674 16.0325L30.3354 24.0005L22.3674 31.9685L23.7114 33.3125L33.0234 24.0005L23.7114 14.6885L22.3674 16.0325Z" fill="#454545"/>
<path id="Vector_3" d="M31.6797 24.9609V23.0409H15.3597V24.9609H31.6797Z" fill="#454545"/>
</g>
</svg>
