<svg width="48" height="48" viewBox="0 0 48 48" fill="none" xmlns="http://www.w3.org/2000/svg">
<g id="arrow-left">
<path id="Vector" d="M40.3197 24.0003C40.3197 33.0243 33.0237 40.3203 23.9997 40.3203C14.9757 40.3203 7.67969 33.0243 7.67969 24.0003C7.67969 14.9763 14.9757 7.68031 23.9997 7.68031C33.0237 7.68031 40.3197 14.9763 40.3197 24.0003ZM9.59969 24.0003C9.59969 31.9683 16.0317 38.4003 23.9997 38.4003C31.9677 38.4003 38.3997 31.9683 38.3997 24.0003C38.3997 16.0323 31.9677 9.60031 23.9997 9.60031C16.0317 9.60031 9.59969 16.0323 9.59969 24.0003Z" fill="#454545"/>
<path id="Vector_2" d="M25.6326 16.0325L17.6646 24.0005L25.6326 31.9685L24.2886 33.3125L14.9766 24.0005L24.2886 14.6885L25.6326 16.0325Z" fill="#454545"/>
<path id="Vector_3" d="M16.3203 24.9609V23.0409H32.6403V24.9609H16.3203Z" fill="#454545"/>
</g>
</svg>
