<svg width="22" height="23" viewBox="0 0 22 23" fill="none" xmlns="http://www.w3.org/2000/svg">
<g id="arrow-left">
<path id="Vector" fill-rule="evenodd" clip-rule="evenodd" d="M5.80399 14.5003C5.70453 14.3281 5.67758 14.1233 5.72907 13.9312C5.78055 13.7391 5.90625 13.5753 6.07851 13.4758L13.6043 9.1308L9.20567 7.9522C9.01985 7.89531 8.86337 7.76852 8.76918 7.59853C8.675 7.42855 8.65048 7.22865 8.70077 7.04094C8.75107 6.85323 8.87226 6.69237 9.03882 6.59225C9.20537 6.49213 9.40429 6.46056 9.59366 6.50421L15.7408 8.15132C15.9327 8.20288 16.0963 8.32852 16.1957 8.50065C16.2951 8.67277 16.3221 8.8773 16.2708 9.06931L14.6237 15.2164C14.5668 15.4022 14.44 15.5587 14.27 15.6529C14.1 15.7471 13.9001 15.7716 13.7124 15.7213C13.5247 15.671 13.3638 15.5498 13.2637 15.3833C13.1636 15.2167 13.132 15.0178 13.1757 14.8284L14.3543 10.4298L6.82851 14.7748C6.65625 14.8743 6.45153 14.9012 6.2594 14.8498C6.06726 14.7983 5.90345 14.6726 5.80399 14.5003Z" fill="#5D5D5D"/>
</g>
</svg>
