<svg width="14" height="13" viewBox="0 0 14 13" fill="none" xmlns="http://www.w3.org/2000/svg">
<path fill-rule="evenodd" clip-rule="evenodd" d="M0.504499 10.75C0.380179 10.5347 0.346489 10.2788 0.410843 10.0386C0.475196 9.79847 0.632319 9.5937 0.847648 9.46938L10.2548 4.03813L4.7566 2.56488C4.52432 2.49377 4.32872 2.33528 4.21099 2.1228C4.09327 1.91032 4.06261 1.66044 4.12548 1.4258C4.18835 1.19117 4.33984 0.990092 4.54803 0.864943C4.75623 0.739793 5.00487 0.70034 5.24158 0.754894L12.9255 2.81379C13.1654 2.87824 13.3699 3.03529 13.4942 3.25044C13.6184 3.4656 13.6521 3.72126 13.588 3.96127L11.5291 11.6452C11.458 11.8774 11.2995 12.073 11.087 12.1908C10.8745 12.3085 10.6246 12.3392 10.39 12.2763C10.1554 12.2134 9.95429 12.0619 9.82914 11.8537C9.70399 11.6455 9.66454 11.3969 9.7191 11.1602L11.1923 5.66193L1.78515 11.0932C1.56982 11.2175 1.31392 11.2512 1.07375 11.1868C0.833586 11.1225 0.628819 10.9654 0.504499 10.75Z" fill="#808080"/>
</svg>
