<svg width="17" height="17" viewBox="0 0 17 17" fill="none" xmlns="http://www.w3.org/2000/svg">
<g id="arrow-back/left">
<path id="Vector" d="M14.3747 8.49992C14.3747 8.59938 14.3352 8.69476 14.2648 8.76509C14.1945 8.83541 14.0991 8.87492 13.9997 8.87492H3.9053L7.76467 12.7349C7.80151 12.7693 7.83106 12.8107 7.85156 12.8567C7.87206 12.9027 7.88308 12.9523 7.88397 13.0027C7.88485 13.053 7.87559 13.103 7.85673 13.1497C7.83787 13.1964 7.8098 13.2388 7.77419 13.2744C7.73858 13.3101 7.69616 13.3381 7.64947 13.357C7.60277 13.3758 7.55276 13.3851 7.50241 13.3842C7.45206 13.3833 7.4024 13.3723 7.3564 13.3518C7.3104 13.3313 7.269 13.3018 7.23467 13.2649L2.73467 8.76492C2.66444 8.69461 2.625 8.5993 2.625 8.49992C2.625 8.40055 2.66444 8.30524 2.73467 8.23492L7.23467 3.73492C7.30576 3.66868 7.39978 3.63262 7.49693 3.63434C7.59408 3.63605 7.68677 3.67541 7.75548 3.74411C7.82419 3.81282 7.86354 3.90551 7.86526 4.00266C7.86697 4.09981 7.83091 4.19384 7.76467 4.26492L3.9053 8.12492H13.9997C14.0991 8.12492 14.1945 8.16443 14.2648 8.23476C14.3352 8.30508 14.3747 8.40047 14.3747 8.49992Z" fill="#888888"/>
</g>
</svg>
