<svg width="42" height="42" viewBox="0 0 42 42" fill="none" xmlns="http://www.w3.org/2000/svg">
<g id="Call">
<path id="Vector" d="M36.82 35.77L37.5606 36.442L37.561 36.4415L36.82 35.77ZM33.95 37.835L33.5708 36.9097L33.5654 36.9119L33.95 37.835ZM18.8125 33.7575L18.2227 34.565L18.2239 34.5659L18.8125 33.7575ZM13.0725 28.8575L12.362 29.5612L12.3688 29.568L13.0725 28.8575ZM8.19 23.135L7.37818 23.7189L7.38157 23.7236L8.19 23.135ZM4.76 17.1675L3.83836 17.5556L3.8396 17.5585L4.76 17.1675ZM4.13 8.0675L5.05849 8.4389L5.06057 8.43362L4.13 8.0675ZM6.1425 5.145L6.82872 5.87239L6.83645 5.8651L6.84402 5.85765L6.1425 5.145ZM11.2 3.815L10.7673 4.71652L10.7741 4.71979L10.7809 4.72296L11.2 3.815ZM12.3725 4.795L11.5503 5.36425L11.5569 5.37364L12.3725 4.795ZM16.4325 10.5175L15.6169 11.0962L15.621 11.1018L16.4325 10.5175ZM17.1325 11.7425L16.207 12.1211L16.2101 12.1288L16.2134 12.1364L17.1325 11.7425ZM17.01 14.0525L16.1558 13.5326L16.1474 13.5464L16.1394 13.5604L17.01 14.0525ZM16.03 15.295L15.3229 14.5879L15.3161 14.5947L15.3093 14.6017L16.03 15.295ZM14.7 16.6775L15.4071 17.3846L15.4139 17.3778L15.4207 17.3708L14.7 16.6775ZM14.4725 17.78L13.5024 18.0225L13.5162 18.0778L13.5362 18.1311L14.4725 17.78ZM14.6125 18.13L13.6638 18.4462L13.692 18.5307L13.7346 18.6089L14.6125 18.13ZM16.24 20.37L15.4766 21.016L15.4838 21.0244L16.24 20.37ZM18.7775 23.135L18.0637 23.8353L18.0703 23.8421L18.077 23.8487L18.7775 23.135ZM21.56 25.7075L20.9128 26.4698L20.9141 26.4709L21.56 25.7075ZM23.8175 27.3175L23.3496 28.2013L23.3967 28.2262L23.4461 28.246L23.8175 27.3175ZM24.1325 27.4575L23.7386 28.3766L23.7598 28.3857L23.7814 28.3938L24.1325 27.4575ZM25.2875 27.23L24.5851 26.5182L24.5804 26.5229L25.2875 27.23ZM26.6175 25.9175L27.3199 26.6293L27.3246 26.6246L26.6175 25.9175ZM27.8775 24.9375L28.3401 25.8241L28.3693 25.8088L28.3974 25.7917L27.8775 24.9375ZM31.4125 25.48L31.9914 24.6646L31.9832 24.6588L31.9748 24.6531L31.4125 25.48ZM37.205 29.5925L36.6261 30.408L36.6358 30.4147L37.205 29.5925ZM38.1675 30.7125L39.096 30.3411L39.0897 30.3253L39.0828 30.3098L38.1675 30.7125ZM31.375 15.75C31.375 16.3023 31.8227 16.75 32.375 16.75C32.9273 16.75 33.375 16.3023 33.375 15.75H31.375ZM30.3275 11.7775L29.5943 12.4575L29.5964 12.4598L30.3275 11.7775ZM26.25 8.625C25.6977 8.625 25.25 9.07272 25.25 9.625C25.25 10.1773 25.6977 10.625 26.25 10.625V8.625ZM37.5 15.75C37.5 16.3023 37.9477 16.75 38.5 16.75C39.0523 16.75 39.5 16.3023 39.5 15.75H37.5ZM26.25 2.5C25.6977 2.5 25.25 2.94772 25.25 3.5C25.25 4.05228 25.6977 4.5 26.25 4.5V2.5ZM37.4475 32.0775C37.4475 32.5575 37.3412 33.0594 37.1058 33.558L38.9142 34.412C39.2738 33.6506 39.4475 32.8575 39.4475 32.0775H37.4475ZM37.1058 33.558C36.8479 34.104 36.5167 34.6156 36.079 35.0985L37.561 36.4415C38.1383 35.8044 38.5771 35.126 38.9142 34.412L37.1058 33.558ZM36.0794 35.098C35.31 35.9459 34.4848 36.5351 33.5708 36.9097L34.3292 38.7603C35.5502 38.2599 36.615 37.4841 37.5606 36.442L36.0794 35.098ZM33.5654 36.9119C32.6419 37.2967 31.6356 37.5 30.5375 37.5V39.5C31.8894 39.5 33.1581 39.2483 34.3346 38.7581L33.5654 36.9119ZM30.5375 37.5C28.9106 37.5 27.1366 37.1172 25.2245 36.3025L24.4405 38.1425C26.5534 39.0428 28.5944 39.5 30.5375 39.5V37.5ZM25.2245 36.3025C23.2886 35.4777 21.3416 34.3619 19.4011 32.9491L18.2239 34.5659C20.2734 36.0581 22.3514 37.2523 24.4405 38.1425L25.2245 36.3025ZM19.4023 32.95C17.4311 31.5101 15.5615 29.9151 13.7762 28.147L12.3688 29.568C14.2235 31.4049 16.1689 33.0649 18.2227 34.565L19.4023 32.95ZM13.783 28.1538C12.0147 26.3683 10.4201 24.4991 8.99843 22.5464L7.38157 23.7236C8.86486 25.7609 10.5253 27.7067 12.362 29.5612L13.783 28.1538ZM9.0018 22.5511C7.60199 20.605 6.48653 18.6743 5.6804 16.7765L3.8396 17.5585C4.71347 19.6157 5.90801 21.675 7.3782 23.7189L9.0018 22.5511ZM5.68164 16.7794C4.88374 14.8844 4.5 13.109 4.5 11.445H2.5C2.5 13.421 2.95626 15.4606 3.83836 17.5556L5.68164 16.7794ZM4.5 11.445C4.5 10.3735 4.68885 9.36295 5.05848 8.43889L3.20152 7.69611C2.73115 8.87205 2.5 10.1365 2.5 11.445H4.5ZM5.06057 8.43362C5.42341 7.5114 6.00154 6.65275 6.82872 5.87239L5.45628 4.41761C4.42846 5.38725 3.67659 6.4886 3.19943 7.70138L5.06057 8.43362ZM6.84402 5.85765C7.81308 4.90373 8.79666 4.5 9.7825 4.5V2.5C8.17834 2.5 6.71192 3.18127 5.44098 4.43235L6.84402 5.85765ZM9.7825 4.5C10.1325 4.5 10.4734 4.57544 10.7673 4.71652L11.6327 2.91348C11.0516 2.63456 10.4125 2.5 9.7825 2.5V4.5ZM10.7809 4.72296C11.0874 4.86439 11.3453 5.06802 11.5503 5.36421L13.1947 4.22579C12.7697 3.61198 12.2226 3.18561 11.6191 2.90704L10.7809 4.72296ZM11.5569 5.37364L15.6169 11.0961L17.2481 9.93886L13.1881 4.21636L11.5569 5.37364ZM15.621 11.1018C15.8997 11.489 16.0849 11.8229 16.207 12.1211L18.058 11.3639C17.8651 10.8921 17.5953 10.421 17.244 9.9332L15.621 11.1018ZM16.2134 12.1364C16.3319 12.413 16.3775 12.6452 16.3775 12.81H18.3775C18.3775 12.3098 18.2481 11.807 18.0516 11.3486L16.2134 12.1364ZM16.3775 12.81C16.3775 13.0287 16.3152 13.2707 16.1558 13.5326L17.8642 14.5724C18.1948 14.0293 18.3775 13.4313 18.3775 12.81H16.3775ZM16.1394 13.5604C15.9678 13.8641 15.6976 14.2132 15.3229 14.5879L16.7371 16.0021C17.2024 15.5368 17.5972 15.0459 17.8806 14.5446L16.1394 13.5604ZM15.3093 14.6017L13.9793 15.9842L15.4207 17.3708L16.7507 15.9883L15.3093 14.6017ZM13.9929 15.9704C13.5974 16.3659 13.42 16.855 13.42 17.3775H15.42C15.42 17.3596 15.4214 17.3512 15.4215 17.3504C15.4216 17.3499 15.4208 17.3548 15.4175 17.3631C15.4159 17.367 15.4141 17.3709 15.4121 17.3748C15.4101 17.3787 15.4081 17.3819 15.4064 17.3844C15.4029 17.3896 15.4021 17.3896 15.4071 17.3846L13.9929 15.9704ZM13.42 17.3775C13.42 17.6122 13.4509 17.8169 13.5024 18.0225L15.4426 17.5375C15.4241 17.4631 15.42 17.4228 15.42 17.3775H13.42ZM13.5362 18.1311C13.5712 18.2245 13.6063 18.3063 13.6281 18.3578C13.6533 18.4173 13.6604 18.4359 13.6638 18.4462L15.5612 17.8138C15.5296 17.7191 15.493 17.6327 15.47 17.5785C15.4437 17.5162 15.4263 17.4755 15.4088 17.4289L13.5362 18.1311ZM13.7346 18.6089C14.0969 19.273 14.6889 20.085 15.4766 21.0159L17.0034 19.7241C16.2511 18.835 15.7581 18.142 15.4904 17.6511L13.7346 18.6089ZM15.4838 21.0244C16.2815 21.9461 17.1358 22.8896 18.0637 23.8353L19.4913 22.4347C18.5992 21.5254 17.7735 20.6139 16.9962 19.7156L15.4838 21.0244ZM18.077 23.8487C19.0301 24.7841 19.9593 25.6602 20.9128 26.4698L22.2072 24.9452C21.3057 24.1798 20.4149 23.3409 19.478 22.4213L18.077 23.8487ZM20.9141 26.4709C21.8536 27.2659 22.6673 27.8401 23.3496 28.2013L24.2854 26.4337C23.7777 26.1649 23.0863 25.6891 22.2059 24.9441L20.9141 26.4709ZM23.4461 28.246C23.4634 28.2529 23.4895 28.2645 23.5452 28.29C23.5941 28.3124 23.6635 28.3445 23.7386 28.3766L24.5264 26.5384C24.479 26.518 24.4346 26.4976 24.3785 26.4719C24.3293 26.4493 24.2591 26.4171 24.1889 26.389L23.4461 28.246ZM23.7814 28.3938C24.0675 28.5011 24.335 28.5275 24.57 28.5275V26.5275C24.5278 26.5275 24.5052 26.5251 24.4945 26.5235C24.4893 26.5227 24.4866 26.522 24.4856 26.5218C24.4847 26.5215 24.4842 26.5214 24.4836 26.5212L23.7814 28.3938ZM24.57 28.5275C25.1469 28.5275 25.6248 28.3069 25.9946 27.9371L24.5804 26.5229C24.5698 26.5335 24.5646 26.5371 24.5648 26.5369C24.5654 26.5365 24.5695 26.5338 24.5763 26.5309C24.5831 26.528 24.5883 26.5267 24.5899 26.5264C24.5912 26.5262 24.5853 26.5275 24.57 26.5275V28.5275ZM25.9899 27.9418L27.3199 26.6293L25.9151 25.2057L24.5851 26.5182L25.9899 27.9418ZM27.3246 26.6246C27.7217 26.2275 28.0602 25.9701 28.3401 25.8241L27.4149 24.0509C26.8898 24.3249 26.3883 24.7325 25.9104 25.2104L27.3246 26.6246ZM28.3974 25.7917C28.6629 25.6301 28.8876 25.57 29.12 25.57V23.57C28.4774 23.57 27.8971 23.7549 27.3576 24.0833L28.3974 25.7917ZM29.12 25.57C29.3059 25.57 29.5275 25.608 29.8089 25.723L30.5661 23.872C30.0775 23.672 29.5991 23.57 29.12 23.57V25.57ZM29.8089 25.723C30.1099 25.8462 30.4498 26.0347 30.8502 26.3069L31.9748 24.6531C31.5002 24.3303 31.0351 24.0638 30.5661 23.872L29.8089 25.723ZM30.8336 26.2954L36.6261 30.4079L37.7839 28.7771L31.9914 24.6646L30.8336 26.2954ZM36.6358 30.4147C36.9621 30.6406 37.1447 30.871 37.2522 31.1152L39.0828 30.3098C38.8053 29.679 38.3579 29.1744 37.7742 28.7703L36.6358 30.4147ZM37.239 31.0839C37.3775 31.43 37.4475 31.7407 37.4475 32.0775H39.4475C39.4475 31.4343 39.3075 30.87 39.096 30.3411L37.239 31.0839ZM33.375 15.75C33.375 14.9986 33.0926 14.1688 32.7 13.405C32.2969 12.6209 31.7306 11.8152 31.0586 11.0952L29.5964 12.4598C30.1494 13.0523 30.6068 13.7078 30.9213 14.3194C31.2461 14.9512 31.375 15.4514 31.375 15.75H33.375ZM31.0607 11.0975C29.8572 9.79997 28.1228 8.625 26.25 8.625V10.625C27.3172 10.625 28.5578 11.34 29.5943 12.4575L31.0607 11.0975ZM39.5 15.75C39.5 8.42522 33.5748 2.5 26.25 2.5V4.5C32.4702 4.5 37.5 9.52979 37.5 15.75H39.5Z" fill="#1D3363"/>
</g>
</svg>
