<svg width="33" height="32" viewBox="0 0 33 32" fill="none" xmlns="http://www.w3.org/2000/svg">
<path d="M20.9465 1.14307V14.8574L29.1522 25.3031C29.5519 25.8089 29.8009 26.4171 29.8706 27.0581C29.9403 27.699 29.8279 28.3465 29.5463 28.9265C29.2647 29.5064 28.8253 29.9952 28.2785 30.3367C27.7317 30.6782 27.0997 30.8587 26.455 30.8574H6.29503C5.65035 30.8587 5.01836 30.6782 4.47158 30.3367C3.9248 29.9952 3.48539 29.5064 3.20378 28.9265C2.92217 28.3465 2.80977 27.699 2.87948 27.0581C2.94919 26.4171 3.19819 25.8089 3.59789 25.3031L11.8036 14.8574V1.14307M8.37503 1.14307H24.375" stroke="#5D5D5D" stroke-width="1.5" stroke-linecap="round" stroke-linejoin="round"/>
</svg>
