<svg width="26" height="30" viewBox="0 0 26 30" fill="none" xmlns="http://www.w3.org/2000/svg">
<path d="M17.0263 2.88125L8.157 7.13991C7.48758 7.46617 6.7262 7.55187 6.001 7.38258C5.69502 7.30669 5.38583 7.24441 5.07433 7.19591C2.641 6.91991 1.125 8.84525 1.125 11.0599V12.2759C1.125 14.4892 2.641 16.4159 5.07433 16.1372C5.38615 16.0912 5.69544 16.0293 6.001 15.9519C6.72635 15.783 7.48774 15.8692 8.157 16.1959L17.0263 20.4532C19.0623 21.4306 20.081 21.9199 21.2157 21.5386C22.3517 21.1572 22.741 20.3399 23.5197 18.7052C24.5764 16.5098 25.1251 14.1045 25.1251 11.6679C25.1251 9.23135 24.5764 6.82607 23.5197 4.63058C22.741 2.99591 22.3517 2.17725 21.2157 1.79725C20.081 1.41591 19.0623 1.90258 17.0263 2.88125Z" stroke="#5D5D5D" stroke-width="1.5" stroke-linecap="round" stroke-linejoin="round"/>
<path d="M7.12547 15.6665V7.6665M12.4028 26.6932L10.4148 28.3332C5.93214 24.7785 6.48014 23.0838 6.48014 16.3332H7.99214C8.60547 20.1465 10.0521 21.9545 12.0495 23.2625C13.2788 24.0678 13.5321 25.7625 12.4028 26.6932Z" stroke="#5D5D5D" stroke-width="1.5" stroke-linecap="round" stroke-linejoin="round"/>
</svg>
