<svg width="29" height="30" viewBox="0 0 29 30" fill="none" xmlns="http://www.w3.org/2000/svg">
<path d="M14.8743 28.3332V6.99984C14.8743 4.48517 14.8743 3.22917 14.093 2.44784C13.3117 1.6665 12.0557 1.6665 9.54102 1.6665H6.87435C4.35968 1.6665 3.10368 1.6665 2.32235 2.44784C1.54102 3.22917 1.54102 4.48517 1.54102 6.99984V22.9998C1.54102 25.5145 1.54102 26.7705 2.32235 27.5518C3.10368 28.3332 4.35968 28.3332 6.87435 28.3332H14.8743ZM14.8743 28.3332H22.8743C25.389 28.3332 26.645 28.3332 27.4263 27.5518C28.2077 26.7705 28.2077 25.5145 28.2077 22.9998V14.9998C28.2077 12.4852 28.2077 11.2292 27.4263 10.4478C26.645 9.6665 25.389 9.6665 22.8743 9.6665H14.8743M23.541 20.3332H19.541M23.541 14.9998H19.541M10.2077 17.6665H6.20768M10.2077 12.3332H6.20768M10.2077 6.99984H6.20768" stroke="#5D5D5D" stroke-width="1.5" stroke-linecap="round" stroke-linejoin="round"/>
</svg>
