<svg width="29" height="32" viewBox="0 0 29 32" fill="none" xmlns="http://www.w3.org/2000/svg">
<path d="M18.9465 1.14307V14.8574L27.1522 25.3031C27.5519 25.8089 27.8009 26.4171 27.8706 27.0581C27.9403 27.699 27.8279 28.3465 27.5463 28.9265C27.2647 29.5064 26.8253 29.9952 26.2785 30.3367C25.7317 30.6782 25.0997 30.8587 24.455 30.8574H4.29503C3.65035 30.8587 3.01836 30.6782 2.47158 30.3367C1.9248 29.9952 1.48539 29.5064 1.20378 28.9265C0.922169 28.3465 0.809769 27.699 0.87948 27.0581C0.949191 26.4171 1.19819 25.8089 1.59789 25.3031L9.8036 14.8574V1.14307M6.37503 1.14307H22.375" stroke="#1D3363" stroke-width="1.5" stroke-linecap="round" stroke-linejoin="round"/>
</svg>
