<svg width="27" height="24" viewBox="0 0 27 24" fill="none" xmlns="http://www.w3.org/2000/svg">
<path d="M5.62422 3.1998C5.62422 2.56329 5.87707 1.95284 6.32716 1.50275C6.77725 1.05266 7.3877 0.799805 8.02422 0.799805H19.2242C19.8607 0.799805 20.4712 1.05266 20.9213 1.50275C21.3714 1.95284 21.6242 2.56329 21.6242 3.1998V3.9998H22.4242C23.4851 3.9998 24.5025 4.42123 25.2526 5.17138C26.0028 5.92152 26.4242 6.93894 26.4242 7.9998V15.9998C26.4242 16.6363 26.1714 17.2468 25.7213 17.6969C25.2712 18.1469 24.6607 18.3998 24.0242 18.3998H21.6242V20.7998C21.6242 21.4363 21.3714 22.0468 20.9213 22.4969C20.4712 22.9469 19.8607 23.1998 19.2242 23.1998H8.02422C7.3877 23.1998 6.77725 22.9469 6.32716 22.4969C5.87707 22.0468 5.62422 21.4363 5.62422 20.7998V18.3998H3.22422C2.5877 18.3998 1.97725 18.1469 1.52716 17.6969C1.07708 17.2468 0.824219 16.6363 0.824219 15.9998V7.9998C0.824219 6.93894 1.24565 5.92152 1.99579 5.17138C2.74594 4.42123 3.76335 3.9998 4.82422 3.9998H5.62422V3.1998ZM7.22422 3.9998H20.0242V3.1998C20.0242 2.98763 19.9399 2.78415 19.7899 2.63412C19.6399 2.48409 19.4364 2.3998 19.2242 2.3998H8.02422C7.81205 2.3998 7.60856 2.48409 7.45853 2.63412C7.3085 2.78415 7.22422 2.98763 7.22422 3.1998V3.9998ZM5.62422 16.7998V14.3998C5.62422 13.7633 5.87707 13.1528 6.32716 12.7027C6.77725 12.2527 7.3877 11.9998 8.02422 11.9998H19.2242C19.8607 11.9998 20.4712 12.2527 20.9213 12.7027C21.3714 13.1528 21.6242 13.7633 21.6242 14.3998V16.7998H24.0242C24.2364 16.7998 24.4399 16.7155 24.5899 16.5655C24.7399 16.4155 24.8242 16.212 24.8242 15.9998V7.9998C24.8242 7.36329 24.5714 6.75284 24.1213 6.30275C23.6712 5.85266 23.0607 5.5998 22.4242 5.5998H4.82422C4.1877 5.5998 3.57725 5.85266 3.12716 6.30275C2.67708 6.75284 2.42422 7.36329 2.42422 7.9998V15.9998C2.42422 16.212 2.5085 16.4155 2.65853 16.5655C2.80856 16.7155 3.01205 16.7998 3.22422 16.7998H5.62422ZM8.02422 13.5998C7.81205 13.5998 7.60856 13.6841 7.45853 13.8341C7.3085 13.9841 7.22422 14.1876 7.22422 14.3998V20.7998C7.22422 21.012 7.3085 21.2155 7.45853 21.3655C7.60856 21.5155 7.81205 21.5998 8.02422 21.5998H19.2242C19.4364 21.5998 19.6399 21.5155 19.7899 21.3655C19.9399 21.2155 20.0242 21.012 20.0242 20.7998V14.3998C20.0242 14.1876 19.9399 13.9841 19.7899 13.8341C19.6399 13.6841 19.4364 13.5998 19.2242 13.5998H8.02422Z" fill="#1D3363"/>
</svg>
