<svg width="25" height="24" viewBox="0 0 25 24" fill="none" xmlns="http://www.w3.org/2000/svg">
<g id="mdi:eye-outline">
<path id="Vector" d="M2.80078 4.27L4.08078 3L20.8008 19.72L19.5308 21L16.4508 17.92C15.3008 18.3 14.0808 18.5 12.8008 18.5C7.80078 18.5 3.53078 15.39 1.80078 11C2.49078 9.24 3.59078 7.69 4.99078 6.46L2.80078 4.27ZM12.8008 8C13.5964 8 14.3595 8.31607 14.9221 8.87868C15.4847 9.44129 15.8008 10.2044 15.8008 11C15.8013 11.3406 15.7438 11.6787 15.6308 12L11.8008 8.17C12.122 8.05698 12.4602 7.99949 12.8008 8ZM12.8008 3.5C17.8008 3.5 22.0708 6.61 23.8008 11C22.9842 13.0729 21.5973 14.8723 19.8008 16.19L18.3808 14.76C19.7637 13.8034 20.8791 12.5091 21.6208 11C20.8124 9.34987 19.5573 7.95963 17.9981 6.98735C16.439 6.01508 14.6383 5.49976 12.8008 5.5C11.7108 5.5 10.6408 5.68 9.64078 6L8.10078 4.47C9.54078 3.85 11.1308 3.5 12.8008 3.5ZM3.98078 11C4.78913 12.6501 6.04424 14.0404 7.60342 15.0126C9.1626 15.9849 10.9633 16.5002 12.8008 16.5C13.4908 16.5 14.1708 16.43 14.8008 16.29L12.5208 14C11.8249 13.9254 11.1756 13.6149 10.6808 13.12C10.1859 12.6252 9.87537 11.9758 9.80078 11.28L6.40078 7.87C5.41078 8.72 4.58078 9.78 3.98078 11Z" fill="#888888"/>
</g>
</svg>
