<svg width="25" height="24" viewBox="0 0 25 24" fill="none" xmlns="http://www.w3.org/2000/svg">
<g id="mdi:eye-outline">
<path id="Vector" d="M12.8008 9C13.5964 9 14.3595 9.31607 14.9221 9.87868C15.4847 10.4413 15.8008 11.2044 15.8008 12C15.8008 12.7956 15.4847 13.5587 14.9221 14.1213C14.3595 14.6839 13.5964 15 12.8008 15C12.0051 15 11.2421 14.6839 10.6795 14.1213C10.1169 13.5587 9.80078 12.7956 9.80078 12C9.80078 11.2044 10.1169 10.4413 10.6795 9.87868C11.2421 9.31607 12.0051 9 12.8008 9ZM12.8008 4.5C17.8008 4.5 22.0708 7.61 23.8008 12C22.0708 16.39 17.8008 19.5 12.8008 19.5C7.80078 19.5 3.53078 16.39 1.80078 12C3.53078 7.61 7.80078 4.5 12.8008 4.5ZM3.98078 12C4.78904 13.6503 6.04409 15.0407 7.60326 16.0133C9.16243 16.9858 10.9632 17.5013 12.8008 17.5013C14.6384 17.5013 16.4391 16.9858 17.9983 16.0133C19.5575 15.0407 20.8125 13.6503 21.6208 12C20.8125 10.3497 19.5575 8.95925 17.9983 7.98675C16.4391 7.01424 14.6384 6.49868 12.8008 6.49868C10.9632 6.49868 9.16243 7.01424 7.60326 7.98675C6.04409 8.95925 4.78904 10.3497 3.98078 12Z" fill="#888888"/>
</g>
</svg>
