<svg width="16" height="17" viewBox="0 0 16 17" fill="none" xmlns="http://www.w3.org/2000/svg">
<g id="facebook" clip-path="url(#clip0_2304_3337)">
<path id="Vector" d="M15.7778 -1.5H0.222222C-1 -1.5 -2 -0.5 -2 0.722222V16.2778C-2 17.5011 -1 18.5 0.222222 18.5H8V10.7222H5.77778V7.97222H8V5.69444C8 3.29 9.34667 1.60111 12.1844 1.60111L14.1878 1.60333V4.49778H12.8578C11.7533 4.49778 11.3333 5.32667 11.3333 6.09556V7.97333H14.1867L13.5556 10.7222H11.3333V18.5H15.7778C17 18.5 18 17.5011 18 16.2778V0.722222C18 -0.5 17 -1.5 15.7778 -1.5Z" fill="#D1D1D1"/>
</g>
<defs>
<clipPath id="clip0_2304_3337">
<rect width="16" height="16" fill="white" transform="translate(0 0.5)"/>
</clipPath>
</defs>
</svg>
