<svg width="16" height="16" viewBox="0 0 16 16" fill="none" xmlns="http://www.w3.org/2000/svg">
<g id="facebook" clip-path="url(#clip0_2191_11639)">
<path id="Vector" d="M15.7778 -2H0.222222C-1 -2 -2 -1 -2 0.222222V15.7778C-2 17.0011 -1 18 0.222222 18H8V10.2222H5.77778V7.47222H8V5.19444C8 2.79 9.34667 1.10111 12.1844 1.10111L14.1878 1.10333V3.99778H12.8578C11.7533 3.99778 11.3333 4.82667 11.3333 5.59556V7.47333H14.1867L13.5556 10.2222H11.3333V18H15.7778C17 18 18 17.0011 18 15.7778V0.222222C18 -1 17 -2 15.7778 -2Z" fill="#5D5D5D"/>
</g>
<defs>
<clipPath id="clip0_2191_11639">
<rect width="16" height="16" fill="white"/>
</clipPath>
</defs>
</svg>
