<svg width="22" height="22" viewBox="0 0 22 22" fill="none" xmlns="http://www.w3.org/2000/svg">
<g id="Group">
<path id="Vector" d="M20.999 11.0005C20.999 12.3138 20.7404 13.6142 20.2378 14.8275C19.7352 16.0408 18.9986 17.1433 18.07 18.0719C17.1413 19.0006 16.0389 19.7372 14.8256 20.2398C13.6123 20.7423 12.3118 21.001 10.9985 21.001C9.68526 21.001 8.38484 20.7423 7.17152 20.2398C5.9582 19.7372 4.85576 19.0006 3.92713 18.0719C2.99849 17.1433 2.26186 16.0408 1.75929 14.8275C1.25672 13.6142 0.998047 12.3138 0.998047 11.0005C0.998047 8.3482 2.05167 5.80454 3.92713 3.92908C5.80258 2.05362 8.34625 1 10.9985 1C13.6508 1 16.1945 2.05362 18.07 3.92908C19.9454 5.80454 20.999 8.3482 20.999 11.0005Z" stroke="#E2E8F0" stroke-width="1.5"/>
<path id="Vector_2" d="M14.9981 11C14.9981 12.313 14.8941 13.614 14.6931 14.827C14.4931 16.04 14.1981 17.142 13.8261 18.071C13.4551 19 13.0141 19.736 12.5291 20.239C12.0431 20.741 11.5231 21 10.9981 21C10.4731 21 9.9531 20.741 9.4681 20.239C8.9821 19.736 8.5411 18.999 8.1701 18.071C7.7981 17.142 7.5031 16.041 7.3021 14.827C7.09707 13.5617 6.9954 12.2818 6.9981 11C6.9981 9.687 7.1011 8.386 7.3021 7.173C7.5031 5.96 7.7981 4.858 8.1701 3.929C8.5411 3 8.9821 2.264 9.4671 1.761C9.9531 1.26 10.4731 1 10.9981 1C11.5231 1 12.0431 1.259 12.5281 1.761C13.0141 2.264 13.4551 3.001 13.8261 3.929C14.1981 4.858 14.4931 5.959 14.6931 7.173C14.8951 8.386 14.9981 9.687 14.9981 11Z" stroke="#E2E8F0" stroke-width="1.5"/>
<path id="Vector_3" d="M1 11H21" stroke="#E2E8F0" stroke-width="1.5" stroke-linecap="round"/>
</g>
</svg>
