<svg width="25" height="24" viewBox="0 0 25 24" fill="none" xmlns="http://www.w3.org/2000/svg">
<g id="heart">
<path id="Vector" d="M16.7441 4.00391C14.8082 4.00391 13.1132 4.83641 12.0566 6.24359C11.0001 4.83641 9.30508 4.00391 7.36914 4.00391C5.8281 4.00564 4.35068 4.61859 3.261 5.70827C2.17132 6.79795 1.55838 8.27537 1.55664 9.81641C1.55664 16.3789 11.287 21.6908 11.7013 21.9102C11.8105 21.9689 11.9326 21.9997 12.0566 21.9997C12.1807 21.9997 12.3027 21.9689 12.412 21.9102C12.8263 21.6908 22.5566 16.3789 22.5566 9.81641C22.5549 8.27537 21.942 6.79795 20.8523 5.70827C19.7626 4.61859 18.2852 4.00564 16.7441 4.00391ZM8.35352 12.5039C6.64164 11.5064 9.05664 16.0373 9.05664 11.0039C9.05813 9.86062 11.0566 8.5 11.0566 7.5C11.8651 6.69157 3.91335 15.5054 5.05664 15.5039C6.88008 15.5039 9.71414 10.44 10.3535 12C9.04727 15.9688 11.5155 8.29037 11.639 8.37317C11.0566 12.5039 11.9079 8.50018 12.0566 8.50018C12.2054 8.50018 12.3507 8.45597 12.4742 8.37317C12.5978 8.29037 12.6939 8.17271 12.7504 8.03516C13.3898 6.47234 4.03008 10.5039 5.85352 10.5039C6.9968 10.5054 9.04509 8.69548 9.85352 9.50391C10.6619 10.3123 7.35303 10.3606 7.35451 11.5039C7.35451 16.5298 10.0635 11.5055 8.35352 12.5039Z" fill="#FF0800"/>
</g>
</svg>
