<svg width="25" height="24" viewBox="0 0 25 24" fill="none" xmlns="http://www.w3.org/2000/svg">
<g id="heart">
<path id="Vector" d="M16.7441 3.75C14.8082 3.75 13.1132 4.5825 12.0566 5.98969C11.0001 4.5825 9.30508 3.75 7.36914 3.75C5.8281 3.75174 4.35068 4.36468 3.261 5.45436C2.17132 6.54404 1.55838 8.02146 1.55664 9.5625C1.55664 16.125 11.287 21.4369 11.7013 21.6562C11.8105 21.715 11.9326 21.7458 12.0566 21.7458C12.1807 21.7458 12.3027 21.715 12.412 21.6562C12.8263 21.4369 22.5566 16.125 22.5566 9.5625C22.5549 8.02146 21.942 6.54404 20.8523 5.45436C19.7626 4.36468 18.2852 3.75174 16.7441 3.75ZM12.0566 20.1375C10.3448 19.14 3.05664 14.5959 3.05664 9.5625C3.05813 8.41921 3.51296 7.32317 4.32139 6.51475C5.12981 5.70632 6.22585 5.25149 7.36914 5.25C9.19258 5.25 10.7235 6.22125 11.3629 7.78125C11.4194 7.91881 11.5155 8.03646 11.639 8.11926C11.7626 8.20207 11.9079 8.24627 12.0566 8.24627C12.2054 8.24627 12.3507 8.20207 12.4742 8.11926C12.5978 8.03646 12.6939 7.91881 12.7504 7.78125C13.3898 6.21844 14.9207 5.25 16.7441 5.25C17.8874 5.25149 18.9835 5.70632 19.7919 6.51475C20.6003 7.32317 21.0552 8.41921 21.0566 9.5625C21.0566 14.5884 13.7666 19.1391 12.0566 20.1375Z" fill="#FF5C57"/>
</g>
</svg>
