<svg width="16" height="17" viewBox="0 0 16 17" fill="none" xmlns="http://www.w3.org/2000/svg">
<g id="instagram" clip-path="url(#clip0_2304_3346)">
<path id="Vector" d="M8 6.516C7.6076 6.516 7.22402 6.63236 6.89775 6.85036C6.57148 7.06837 6.31719 7.37823 6.16702 7.74076C6.01686 8.10328 5.97757 8.5022 6.05412 8.88706C6.13068 9.27192 6.31963 9.62543 6.5971 9.9029C6.87457 10.1804 7.22808 10.3693 7.61294 10.4459C7.9978 10.5224 8.39672 10.4831 8.75924 10.333C9.12177 10.1828 9.43163 9.92852 9.64964 9.60225C9.86764 9.27598 9.984 8.8924 9.984 8.5C9.984 8.23946 9.93268 7.98147 9.83298 7.74076C9.73327 7.50005 9.58713 7.28133 9.4029 7.0971C9.21867 6.91287 8.99995 6.76673 8.75924 6.66702C8.51853 6.56732 8.26054 6.516 8 6.516ZM15.944 4.556C15.9398 3.93821 15.826 3.32606 15.608 2.748C15.4474 2.32501 15.199 1.94088 14.8791 1.62095C14.5591 1.30102 14.175 1.05257 13.752 0.892C13.1739 0.673971 12.5618 0.560209 11.944 0.556C10.912 0.5 10.608 0.5 8 0.5C5.392 0.5 5.088 0.5 4.056 0.556C3.43821 0.560209 2.82606 0.673971 2.248 0.892C1.82501 1.05257 1.44088 1.30102 1.12095 1.62095C0.801021 1.94088 0.552574 2.32501 0.392 2.748C0.173971 3.32606 0.0602087 3.93821 0.0559999 4.556C-5.36442e-08 5.588 0 5.892 0 8.5C0 11.108 -5.36442e-08 11.412 0.0559999 12.444C0.0646111 13.064 0.178219 13.678 0.392 14.26C0.551862 14.6811 0.800103 15.063 1.12 15.38C1.43855 15.7018 1.82351 15.9503 2.248 16.108C2.82606 16.326 3.43821 16.4398 4.056 16.444C5.088 16.5 5.392 16.5 8 16.5C10.608 16.5 10.912 16.5 11.944 16.444C12.5618 16.4398 13.1739 16.326 13.752 16.108C14.1765 15.9503 14.5614 15.7018 14.88 15.38C15.1999 15.063 15.4481 14.6811 15.608 14.26C15.8258 13.6791 15.9396 13.0644 15.944 12.444C16 11.412 16 11.108 16 8.5C16 5.892 16 5.588 15.944 4.556ZM13.912 10.956C13.8863 11.4497 13.781 11.936 13.6 12.396C13.4447 12.7797 13.2138 13.1284 12.9211 13.4211C12.6284 13.7138 12.2797 13.9447 11.896 14.1C11.4316 14.2709 10.9426 14.3654 10.448 14.38H5.552C5.05738 14.3654 4.56839 14.2709 4.104 14.1C3.70728 13.9526 3.34902 13.7174 3.056 13.412C2.76613 13.125 2.54228 12.7783 2.4 12.396C2.22845 11.9321 2.13649 11.4425 2.128 10.948V6.052C2.13649 5.55746 2.22845 5.06791 2.4 4.604C2.54743 4.20728 2.78262 3.84902 3.088 3.556C3.37627 3.2677 3.72261 3.04408 4.104 2.9C4.56839 2.72912 5.05738 2.63457 5.552 2.62H10.448C10.9426 2.63457 11.4316 2.72912 11.896 2.9C12.2927 3.04743 12.651 3.28262 12.944 3.588C13.2339 3.875 13.4577 4.22171 13.6 4.604C13.7709 5.06839 13.8654 5.55738 13.88 6.052V8.5C13.88 10.148 13.936 10.316 13.912 10.948V10.956ZM12.632 5.004C12.5368 4.74559 12.3866 4.51091 12.1918 4.31617C11.9971 4.12143 11.7624 3.97125 11.504 3.876C11.1492 3.75301 10.7755 3.69343 10.4 3.7H5.6C5.22261 3.70369 4.84886 3.77411 4.496 3.908C4.24154 3.99893 4.00935 4.14297 3.81487 4.33056C3.62038 4.51815 3.46805 4.74499 3.368 4.996C3.25182 5.35229 3.19506 5.72528 3.2 6.1V10.9C3.20793 11.277 3.27822 11.65 3.408 12.004C3.50325 12.2624 3.65343 12.4971 3.84817 12.6918C4.04291 12.8866 4.27759 13.0368 4.536 13.132C4.87733 13.2575 5.23652 13.3277 5.6 13.34H10.4C10.7774 13.3363 11.1511 13.2659 11.504 13.132C11.7624 13.0368 11.9971 12.8866 12.1918 12.6918C12.3866 12.4971 12.5368 12.2624 12.632 12.004C12.7659 11.6511 12.8363 11.2774 12.84 10.9V6.1C12.8402 5.72224 12.7697 5.34778 12.632 4.996V5.004ZM8 11.556C7.59906 11.556 7.20205 11.4769 6.83173 11.3232C6.46141 11.1695 6.12504 10.9443 5.84191 10.6604C5.55877 10.3766 5.33442 10.0396 5.18172 9.66888C5.02901 9.29815 4.95095 8.90094 4.952 8.5C4.952 7.89524 5.13144 7.30408 5.46759 6.80135C5.80374 6.29862 6.2815 5.90693 6.84037 5.67587C7.39925 5.4448 8.01412 5.38475 8.60714 5.50332C9.20017 5.62189 9.74468 5.91374 10.1717 6.34193C10.5988 6.77012 10.8892 7.31539 11.0063 7.90872C11.1233 8.50206 11.0616 9.11677 10.8291 9.67503C10.5965 10.2333 10.2036 10.71 9.7 11.0449C9.19639 11.3797 8.60476 11.5576 8 11.556ZM11.2 6.044C11.0232 6.02528 10.8595 5.94178 10.7405 5.80958C10.6216 5.67738 10.5558 5.50583 10.5558 5.328C10.5558 5.15017 10.6216 4.97862 10.7405 4.84642C10.8595 4.71422 11.0232 4.63072 11.2 4.612C11.3768 4.63072 11.5405 4.71422 11.6595 4.84642C11.7784 4.97862 11.8442 5.15017 11.8442 5.328C11.8442 5.50583 11.7784 5.67738 11.6595 5.80958C11.5405 5.94178 11.3768 6.02528 11.2 6.044Z" fill="#D1D1D1"/>
</g>
<defs>
<clipPath id="clip0_2304_3346">
<rect width="16" height="16" fill="white" transform="translate(0 0.5)"/>
</clipPath>
</defs>
</svg>
