<svg width="36" height="36" viewBox="0 0 36 36" fill="none" xmlns="http://www.w3.org/2000/svg">
<g id="fluent:location-28-filled">
<path id="Vector" d="M18.0006 2.89453C21.3252 2.89453 24.5137 4.21525 26.8646 6.56616C29.2155 8.91706 30.5363 12.1056 30.5363 15.4302C30.5363 20.7274 26.8141 26.5002 19.4663 32.8105C19.0577 33.1615 18.5368 33.3543 17.9982 33.3538C17.4595 33.3533 16.9389 33.1597 16.531 32.808L16.045 32.3862C9.02242 26.2405 5.46484 20.6091 5.46484 15.4302C5.46484 12.1056 6.78557 8.91706 9.13647 6.56616C11.4874 4.21525 14.6759 2.89453 18.0006 2.89453ZM18.0006 10.6088C16.7218 10.6088 15.4955 11.1168 14.5913 12.021C13.6871 12.9252 13.1791 14.1515 13.1791 15.4302C13.1791 16.709 13.6871 17.9353 14.5913 18.8395C15.4955 19.7437 16.7218 20.2517 18.0006 20.2517C19.2793 20.2517 20.5056 19.7437 21.4098 18.8395C22.314 17.9353 22.822 16.709 22.822 15.4302C22.822 14.1515 22.314 12.9252 21.4098 12.021C20.5056 11.1168 19.2793 10.6088 18.0006 10.6088Z" fill="#5D5D5D"/>
</g>
</svg>
