<svg width="16" height="16" viewBox="0 0 16 16" fill="none" xmlns="http://www.w3.org/2000/svg">
<g id="quote">
<path id="Vector" fill-rule="evenodd" clip-rule="evenodd" d="M3.99935 4C3.64573 4 3.30659 4.14048 3.05654 4.39052C2.80649 4.64057 2.66602 4.97971 2.66602 5.33333V7.33333C2.66602 7.68696 2.80649 8.02609 3.05654 8.27614C3.30659 8.52619 3.64573 8.66667 3.99935 8.66667H5.99935C5.99935 9.1971 5.78864 9.70581 5.41356 10.0809C5.03849 10.456 4.52978 10.6667 3.99935 10.6667H3.33268C3.15587 10.6667 2.9863 10.7369 2.86128 10.8619C2.73625 10.987 2.66602 11.1565 2.66602 11.3333C2.66602 11.5101 2.73625 11.6797 2.86128 11.8047C2.9863 11.9298 3.15587 12 3.33268 12H3.99935C4.8834 12 5.73125 11.6488 6.35637 11.0237C6.98149 10.3986 7.33268 9.55072 7.33268 8.66667V5.33333C7.33268 4.97971 7.19221 4.64057 6.94216 4.39052C6.69211 4.14048 6.35297 4 5.99935 4H3.99935ZM9.99935 4C9.64573 4 9.30659 4.14048 9.05654 4.39052C8.80649 4.64057 8.66602 4.97971 8.66602 5.33333V7.33333C8.66602 7.68696 8.80649 8.02609 9.05654 8.27614C9.30659 8.52619 9.64573 8.66667 9.99935 8.66667H11.9993C11.9993 9.1971 11.7886 9.70581 11.4136 10.0809C11.0385 10.456 10.5298 10.6667 9.99935 10.6667H9.33268C9.15587 10.6667 8.9863 10.7369 8.86128 10.8619C8.73625 10.987 8.66602 11.1565 8.66602 11.3333C8.66602 11.5101 8.73625 11.6797 8.86128 11.8047C8.9863 11.9298 9.15587 12 9.33268 12H9.99935C10.8834 12 11.7312 11.6488 12.3564 11.0237C12.9815 10.3986 13.3327 9.55072 13.3327 8.66667V5.33333C13.3327 4.97971 13.1922 4.64057 12.9422 4.39052C12.6921 4.14048 12.353 4 11.9993 4H9.99935Z" fill="#5D5D5D"/>
</g>
</svg>
