<svg width="32" height="32" viewBox="0 0 32 32" fill="none" xmlns="http://www.w3.org/2000/svg">
<path d="M7.99931 12V2.66663M23.9993 12V2.66663M15.9993 5.33329V2.66663M17.7326 10.8133L19.4926 14.3333C19.7326 14.8133 20.3726 15.2933 20.906 15.3733L24.0926 15.9066C26.1326 16.2533 26.6126 17.72 25.146 19.1866L22.666 21.6666C22.2526 22.08 22.0126 22.8933 22.146 23.48L22.8527 26.56C23.4127 28.9866 22.1193 29.9333 19.9727 28.6666L16.986 26.8933C16.4393 26.5733 15.5593 26.5733 15.0126 26.8933L12.026 28.6666C9.87929 29.9333 8.58595 28.9866 9.14595 26.56L9.85266 23.48C9.98599 22.9066 9.74597 22.0933 9.33264 21.6666L6.85266 19.1866C5.38599 17.72 5.86596 16.24 7.90596 15.9066L11.0926 15.3733C11.626 15.28 12.266 14.8133 12.506 14.3333L14.266 10.8133C15.2127 8.90663 16.786 8.90663 17.7326 10.8133Z" stroke="#214EAC" stroke-width="1.5" stroke-linecap="round" stroke-linejoin="round"/>
</svg>
