<svg width="16" height="17" viewBox="0 0 16 17" fill="none" xmlns="http://www.w3.org/2000/svg">
<g id="solar:star-line-duotone">
<path id="Vector" d="M6.10281 4.10598C6.94747 2.59132 7.36947 1.83398 8.00081 1.83398C8.63214 1.83398 9.05414 2.59132 9.89881 4.10598L10.1175 4.49798C10.3575 4.92865 10.4775 5.14398 10.6641 5.28598C10.8508 5.42798 11.0841 5.48065 11.5508 5.58598L11.9748 5.68198C13.6148 6.05332 14.4341 6.23865 14.6295 6.86598C14.8241 7.49265 14.2655 8.14665 13.1475 9.45398L12.8581 9.79198C12.5408 10.1633 12.3815 10.3493 12.3101 10.5787C12.2388 10.8087 12.2628 11.0567 12.3108 11.552L12.3548 12.0033C12.5235 13.748 12.6081 14.62 12.0975 15.0073C11.5868 15.3953 10.8188 15.0413 9.28414 14.3347L8.88614 14.152C8.45014 13.9507 8.23214 13.8507 8.00081 13.8507C7.76947 13.8507 7.55147 13.9507 7.11547 14.152L6.71814 14.3347C5.18281 15.0413 4.41481 15.3947 3.90481 15.008C3.39347 14.62 3.47814 13.748 3.64681 12.0033L3.69081 11.5527C3.73881 11.0567 3.76281 10.8087 3.69081 10.5793C3.62014 10.3493 3.46081 10.1633 3.14347 9.79265L2.85414 9.45398C1.73614 8.14732 1.17747 7.49332 1.37214 6.86598C1.56747 6.23865 2.38747 6.05265 4.02747 5.68198L4.45147 5.58598C4.91747 5.48065 5.15014 5.42798 5.33747 5.28598C5.52414 5.14398 5.64414 4.92865 5.88414 4.49798L6.10281 4.10598Z" fill="#FFB800"/>
</g>
</svg>
