<svg width="36" height="36" viewBox="0 0 36 36" fill="none" xmlns="http://www.w3.org/2000/svg">
<g id="support 3">
<path id="Vector" d="M18.0004 26.1008C17.0953 26.101 16.2234 25.7603 15.5583 25.1465C14.8931 24.5327 14.4836 23.6909 14.4112 22.7888C12.0103 21.939 9.98688 20.2683 8.69803 18.0716C7.40918 15.875 6.93781 13.2936 7.36712 10.7833C7.79642 8.27287 9.09881 5.99486 11.0444 4.35135C12.9899 2.70783 15.4536 1.80449 18.0004 1.80078C20.7092 1.80039 23.3193 2.81794 25.313 4.65167C27.3068 6.4854 28.5387 9.00139 28.7644 11.7008C28.7719 11.8179 28.755 11.9352 28.7147 12.0454C28.6744 12.1556 28.6117 12.2563 28.5304 12.3409C28.4492 12.4255 28.3512 12.4923 28.2427 12.5371C28.1343 12.5818 28.0177 12.6035 27.9004 12.6008C27.6593 12.5947 27.429 12.4993 27.2544 12.3329C27.0798 12.1666 26.9732 11.9413 26.9554 11.7008C26.7951 10.1093 26.2135 8.58927 25.2706 7.29721C24.3276 6.00516 23.0573 4.98775 21.5905 4.34974C20.1237 3.71172 18.5134 3.47615 16.9253 3.66728C15.3372 3.85841 13.8288 4.46933 12.5552 5.43714C11.2817 6.40495 10.2891 7.69469 9.67962 9.17358C9.07015 10.6525 8.86584 12.2671 9.08771 13.8512C9.30957 15.4352 9.94961 16.9316 10.9419 18.1861C11.9342 19.4407 13.243 20.4081 14.7334 20.9888C15.0046 20.4028 15.4284 19.9005 15.9604 19.5346C16.4924 19.1687 17.113 18.9526 17.7573 18.909C18.4015 18.8654 19.0456 18.9958 19.6221 19.2867C20.1986 19.5775 20.6862 20.0181 21.0339 20.5622C21.3816 21.1062 21.5766 21.7338 21.5984 22.3792C21.6202 23.0245 21.4681 23.6638 21.1579 24.2301C20.8477 24.7964 20.391 25.2689 19.8354 25.598C19.2799 25.9271 18.6461 26.1008 18.0004 26.1008ZM9.01659 21.6008H9.18039C10.243 22.6432 11.482 23.4891 12.8398 24.0992C13.2388 25.4158 14.1253 26.5304 15.3183 27.2156C16.5113 27.9007 17.9208 28.1047 19.2591 27.7859C20.5974 27.467 21.7635 26.6494 22.5195 25.5C23.2754 24.3505 23.5641 22.9559 23.3266 21.6008H27.0004C27.9552 21.6008 28.8708 21.9801 29.546 22.6552C30.2211 23.3303 30.6004 24.246 30.6004 25.2008C30.6004 28.2446 29.101 30.5396 26.7574 32.0354C24.4498 33.506 21.3394 34.2008 18.0004 34.2008C14.6614 34.2008 11.551 33.506 9.24339 32.0354C6.89979 30.5414 5.40039 28.2428 5.40039 25.2008C5.40039 23.1974 7.02579 21.6008 9.01659 21.6008ZM25.2004 12.6008C25.2008 13.8187 24.8922 15.0169 24.3035 16.0831C23.7148 17.1493 22.8653 18.0488 21.8344 18.6974C21.3323 18.1914 20.7351 17.7898 20.077 17.5158C19.419 17.2417 18.7132 17.1007 18.0004 17.1008C17.2876 17.1007 16.5818 17.2417 15.9238 17.5158C15.2657 17.7898 14.6684 18.1914 14.1664 18.6974C12.7991 17.8376 11.7607 16.543 11.218 15.0218C10.9411 14.2447 10.7999 13.4257 10.8004 12.6008C10.8004 10.6912 11.559 8.85987 12.9092 7.50961C14.2595 6.15935 16.0908 5.40078 18.0004 5.40078C19.91 5.40078 21.7413 6.15935 23.0916 7.50961C24.4418 8.85987 25.2004 10.6912 25.2004 12.6008Z" fill="#1D3363"/>
</g>
</svg>
