<svg width="26" height="30" viewBox="0 0 26 30" fill="none" xmlns="http://www.w3.org/2000/svg">
<g id="Group">
<path id="Vector" d="M16.9013 2.88173L8.032 7.1404C7.36258 7.46666 6.6012 7.55236 5.876 7.38307C5.57002 7.30718 5.26083 7.2449 4.94933 7.1964C2.516 6.9204 1 8.84573 1 11.0604V12.2764C1 14.4897 2.516 16.4164 4.94933 16.1377C5.26115 16.0916 5.57044 16.0298 5.876 15.9524C6.60135 15.7835 7.36274 15.8697 8.032 16.1964L16.9013 20.4537C18.9373 21.4311 19.956 21.9204 21.0907 21.5391C22.2267 21.1577 22.616 20.3404 23.3947 18.7057C24.4514 16.5102 25.0001 14.105 25.0001 11.6684C25.0001 9.23184 24.4514 6.82656 23.3947 4.63107C22.616 2.9964 22.2267 2.17773 21.0907 1.79773C19.956 1.4164 18.9373 1.90307 16.9013 2.88173Z" stroke="#1D3363" stroke-width="1.5" stroke-linecap="round" stroke-linejoin="round"/>
<path id="Vector_2" d="M6.99852 15.668V7.66797M12.2758 26.6946L10.2878 28.3346C5.80518 24.78 6.35318 23.0853 6.35318 16.3346H7.86518C8.47852 20.148 9.92518 21.956 11.9225 23.264C13.1518 24.0693 13.4052 25.764 12.2758 26.6946Z" stroke="#1D3363" stroke-width="1.5" stroke-linecap="round" stroke-linejoin="round"/>
</g>
</svg>
