<svg width="12" height="13" viewBox="0 0 12 13" fill="none" xmlns="http://www.w3.org/2000/svg">
<g id="tick" clip-path="url(#clip0_2337_4160)">
<path id="Vector" fill-rule="evenodd" clip-rule="evenodd" d="M0 6.5C0 4.9087 0.632141 3.38258 1.75736 2.25736C2.88258 1.13214 4.4087 0.5 6 0.5C7.5913 0.5 9.11742 1.13214 10.2426 2.25736C11.3679 3.38258 12 4.9087 12 6.5C12 8.0913 11.3679 9.61742 10.2426 10.7426C9.11742 11.8679 7.5913 12.5 6 12.5C4.4087 12.5 2.88258 11.8679 1.75736 10.7426C0.632141 9.61742 0 8.0913 0 6.5ZM5.6576 9.068L9.112 4.7496L8.488 4.2504L5.5424 7.9312L3.456 6.1928L2.944 6.8072L5.6576 9.068Z" fill="#808080"/>
</g>
<defs>
<clipPath id="clip0_2337_4160">
<rect width="12" height="12" fill="white" transform="translate(0 0.5)"/>
</clipPath>
</defs>
</svg>
