<svg width="32" height="32" viewBox="0 0 32 32" fill="none" xmlns="http://www.w3.org/2000/svg">
<g id="time">
<path id="Vector" d="M7.51479 7.51467C5.55166 9.47777 4.32995 12.0608 4.05781 14.8237C3.78567 17.5866 4.47995 20.3584 6.02234 22.6668C7.56473 24.9752 9.85981 26.6773 12.5165 27.4833C15.1732 28.2892 18.0272 28.149 20.5921 27.0866C23.1571 26.0242 25.2743 24.1053 26.583 21.6568C27.8918 19.2084 28.3111 16.3819 27.7695 13.659C27.2279 10.9361 25.7589 8.4852 23.6128 6.72394C21.4668 4.96268 18.7764 4.00002 16.0001 4V6.66667M16.0001 16L8.00012 8M28.0001 16H25.3335M16.0001 25.3333V28M6.66679 16H4.00012" stroke="#1D3363" stroke-width="2" stroke-linecap="round"/>
</g>
</svg>
