<svg width="32" height="26" viewBox="0 0 32 26" fill="none" xmlns="http://www.w3.org/2000/svg">
<g id="Group">
<path id="Vector" d="M22 18.64V4.375C22 3.57935 21.6839 2.81629 21.1213 2.25368C20.5587 1.69107 19.7956 1.375 19 1.375H4C3.20435 1.375 2.44129 1.69107 1.87868 2.25368C1.31607 2.81629 1 3.57935 1 4.375V17.875C1 18.2728 1.15804 18.6544 1.43934 18.9357C1.72064 19.217 2.10218 19.375 2.5 19.375H3.565C3.8574 18.7074 4.33801 18.1394 4.94806 17.7406C5.55811 17.3418 6.27116 17.1294 7 17.1294C7.72884 17.1294 8.44189 17.3418 9.05194 17.7406C9.66199 18.1394 10.1426 18.7074 10.435 19.375H21.565C21.6745 19.111 21.82 18.8635 22 18.64ZM22 18.64C22.3898 18.1112 22.9122 17.6946 23.5145 17.4322C24.1167 17.1698 24.7775 17.0709 25.4302 17.1455C26.0829 17.22 26.7043 17.4654 27.2319 17.8568C27.7595 18.2483 28.1745 18.772 28.435 19.375H31V15.04C31.0006 13.9515 30.705 12.8834 30.145 11.95L28.3 8.875L26.935 6.61C26.8022 6.38608 26.6135 6.20057 26.3873 6.0717C26.1611 5.94284 25.9053 5.87505 25.645 5.875H22V18.64Z" stroke="#1D3363" stroke-width="2" stroke-linecap="round" stroke-linejoin="round"/>
<path id="Vector_2" d="M14.5 11.875H7M14.5 7.375H7M10.75 20.875C10.7507 21.4329 10.6268 21.9838 10.3876 22.4878C10.1483 22.9917 9.79964 23.4359 9.36695 23.788C8.93425 24.1401 8.42846 24.3913 7.88641 24.5231C7.34436 24.655 6.77972 24.6643 6.23364 24.5503C5.68756 24.4363 5.17379 24.2019 4.72978 23.8641C4.28577 23.5264 3.9227 23.0939 3.66703 22.5981C3.41136 22.1023 3.26953 21.5556 3.25188 20.9981C3.23423 20.4405 3.3412 19.886 3.565 19.375C3.9103 18.5866 4.51633 17.9409 5.28134 17.5464C6.04636 17.152 6.92379 17.0327 7.76636 17.2086C8.60893 17.3845 9.36534 17.8449 9.90862 18.5125C10.4519 19.1801 10.749 20.0143 10.75 20.875ZM28.75 20.875C28.7507 21.4329 28.6268 21.9838 28.3876 22.4878C28.1483 22.9917 27.7996 23.4359 27.3669 23.788C26.9343 24.1401 26.4285 24.3913 25.8864 24.5231C25.3444 24.655 24.7797 24.6643 24.2336 24.5503C23.6876 24.4363 23.1738 24.2019 22.7298 23.8641C22.2858 23.5264 21.9227 23.0939 21.667 22.5981C21.4114 22.1023 21.2695 21.5556 21.2519 20.9981C21.2342 20.4405 21.3412 19.886 21.565 19.375C21.6745 19.111 21.82 18.8635 22 18.64C22.3898 18.1112 22.9122 17.6946 23.5144 17.4322C24.1167 17.1698 24.7775 17.0709 25.4302 17.1455C26.0829 17.22 26.7043 17.4654 27.2319 17.8568C27.7595 18.2483 28.1745 18.772 28.435 19.375C28.645 19.8475 28.753 20.359 28.75 20.875Z" stroke="#262626" stroke-width="1.5" stroke-linecap="round" stroke-linejoin="round"/>
</g>
</svg>
