<svg width="33" height="32" viewBox="0 0 33 32" fill="none" xmlns="http://www.w3.org/2000/svg">
<g id="lets-icons:img-box-fill">
<g id="Group">
<path id="Vector" fill-rule="evenodd" clip-rule="evenodd" d="M4.72868 4.22961C3.16602 5.79094 3.16602 8.30561 3.16602 13.3336V18.6669C3.16602 23.6949 3.16602 26.2096 4.72868 27.7709C6.29002 29.3336 8.80468 29.3336 13.8327 29.3336H19.166C24.194 29.3336 26.7087 29.3336 28.27 27.7709C29.8327 26.2096 29.8327 23.6949 29.8327 18.6669V13.3336C29.8327 9.54694 29.8327 7.18694 29.166 5.58561V22.6669C28.5321 22.667 27.9044 22.5423 27.3188 22.2998C26.7331 22.0573 26.201 21.7018 25.7527 21.2536L24.75 20.2509C23.7873 19.2883 23.3073 18.8083 22.762 18.6056C22.1625 18.3827 21.5029 18.3827 20.9033 18.6056C20.358 18.8083 19.8767 19.2883 18.9167 20.2509L18.7647 20.4016C17.9847 21.1816 17.594 21.5723 17.1793 21.6443C16.8573 21.701 16.5256 21.6374 16.2473 21.4656C15.89 21.2443 15.6727 20.7363 15.2367 19.7216L15.166 19.5563C14.166 17.2229 13.6673 16.0576 12.7953 15.6203C12.3562 15.4001 11.8648 15.3055 11.3753 15.3469C10.4033 15.4296 9.50735 16.3269 7.71268 18.1203L5.16602 20.6669V3.84961C5.01078 3.96496 4.86458 4.092 4.72868 4.22961Z" fill="#5D5D5D"/>
<path id="Vector_2" d="M4.5 13.3333C4.5 10.7813 4.50267 9.00133 4.684 7.65867C4.85867 6.35467 5.18 5.664 5.67067 5.172C6.164 4.67867 6.85467 4.35867 8.15867 4.184C9.50133 4.00267 11.2813 4 13.8333 4H19.1667C21.7187 4 23.4987 4.00267 24.8413 4.184C26.1453 4.35867 26.836 4.68 27.328 5.17067C27.8213 5.664 28.1413 6.35467 28.3173 7.65867C28.4973 9.00133 28.5 10.7813 28.5 13.3333V18.6667C28.5 21.2187 28.4973 22.9987 28.3173 24.3413C28.1413 25.6453 27.82 26.336 27.328 26.828C26.836 27.3213 26.1453 27.6413 24.8413 27.8173C23.4987 27.9973 21.7187 28 19.1667 28H13.8333C11.2813 28 9.50133 27.9973 8.15867 27.8173C6.85467 27.6413 6.164 27.32 5.672 26.828C5.17867 26.336 4.85867 25.6453 4.684 24.3413C4.50267 22.9987 4.5 21.2187 4.5 18.6667V13.3333Z" stroke="#5D5D5D" stroke-width="2"/>
<path id="Vector_3" d="M20.4987 14.6673C21.9715 14.6673 23.1654 13.4734 23.1654 12.0007C23.1654 10.5279 21.9715 9.33398 20.4987 9.33398C19.0259 9.33398 17.832 10.5279 17.832 12.0007C17.832 13.4734 19.0259 14.6673 20.4987 14.6673Z" fill="#5D5D5D"/>
</g>
</g>
</svg>
