<svg width="20" height="21" viewBox="0 0 20 21" fill="none" xmlns="http://www.w3.org/2000/svg">
<g id="mingcute:youtube-fill" clip-path="url(#clip0_2304_3348)">
<g id="Group">
<path id="Vector" fill-rule="evenodd" clip-rule="evenodd" d="M10 2.5C10.855 2.5 11.732 2.522 12.582 2.558L13.586 2.606L14.547 2.663L15.447 2.724L16.269 2.788C17.161 2.85628 18.0004 3.23695 18.6395 3.86304C19.2786 4.48913 19.6764 5.32054 19.763 6.211L19.803 6.636L19.878 7.546C19.948 8.489 20 9.517 20 10.5C20 11.483 19.948 12.511 19.878 13.454L19.803 14.364C19.79 14.51 19.777 14.651 19.763 14.789C19.6764 15.6796 19.2784 16.5111 18.6391 17.1373C17.9999 17.7634 17.1602 18.1439 16.268 18.212L15.448 18.275L14.548 18.337L13.586 18.394L12.582 18.442C11.7218 18.4794 10.861 18.4987 10 18.5C9.13902 18.4987 8.27817 18.4794 7.418 18.442L6.414 18.394L5.453 18.337L4.553 18.275L3.731 18.212C2.83895 18.1437 1.99955 17.7631 1.36047 17.137C0.721394 16.5109 0.323574 15.6795 0.237 14.789L0.197 14.364L0.122 13.454C0.0455376 12.4711 0.00484402 11.4858 0 10.5C0 9.517 0.052 8.489 0.122 7.546L0.197 6.636C0.21 6.49 0.223 6.349 0.237 6.211C0.323541 5.3207 0.721217 4.48941 1.36009 3.86334C1.99897 3.23727 2.83813 2.8565 3.73 2.788L4.551 2.724L5.451 2.663L6.413 2.606L7.417 2.558C8.2775 2.52063 9.13869 2.5013 10 2.5ZM8 8.075V12.925C8 13.387 8.5 13.675 8.9 13.445L13.1 11.02C13.1914 10.9674 13.2673 10.8916 13.3201 10.8003C13.3729 10.709 13.4007 10.6055 13.4007 10.5C13.4007 10.3945 13.3729 10.291 13.3201 10.1997C13.2673 10.1084 13.1914 10.0326 13.1 9.98L8.9 7.556C8.80876 7.50332 8.70526 7.4756 8.5999 7.47562C8.49455 7.47563 8.39106 7.50339 8.29983 7.5561C8.20861 7.6088 8.13287 7.6846 8.08024 7.77587C8.02761 7.86713 7.99993 7.97064 8 8.076V8.075Z" fill="#D1D1D1"/>
</g>
</g>
<defs>
<clipPath id="clip0_2304_3348">
<rect width="20" height="20" fill="white" transform="translate(0 0.5)"/>
</clipPath>
</defs>
</svg>
