<svg width="20" height="20" viewBox="0 0 20 20" fill="none" xmlns="http://www.w3.org/2000/svg">
<g id="mingcute:youtube-fill" clip-path="url(#clip0_2191_11650)">
<g id="Group">
<path id="Vector" fill-rule="evenodd" clip-rule="evenodd" d="M10 2C10.855 2 11.732 2.022 12.582 2.058L13.586 2.106L14.547 2.163L15.447 2.224L16.269 2.288C17.161 2.35628 18.0004 2.73695 18.6395 3.36304C19.2786 3.98913 19.6764 4.82054 19.763 5.711L19.803 6.136L19.878 7.046C19.948 7.989 20 9.017 20 10C20 10.983 19.948 12.011 19.878 12.954L19.803 13.864C19.79 14.01 19.777 14.151 19.763 14.289C19.6764 15.1796 19.2784 16.0111 18.6391 16.6373C17.9999 17.2634 17.1602 17.6439 16.268 17.712L15.448 17.775L14.548 17.837L13.586 17.894L12.582 17.942C11.7218 17.9794 10.861 17.9987 10 18C9.13902 17.9987 8.27817 17.9794 7.418 17.942L6.414 17.894L5.453 17.837L4.553 17.775L3.731 17.712C2.83895 17.6437 1.99955 17.2631 1.36047 16.637C0.721394 16.0109 0.323574 15.1795 0.237 14.289L0.197 13.864L0.122 12.954C0.0455376 11.9711 0.00484402 10.9858 0 10C0 9.017 0.052 7.989 0.122 7.046L0.197 6.136C0.21 5.99 0.223 5.849 0.237 5.711C0.323541 4.8207 0.721217 3.98941 1.36009 3.36334C1.99897 2.73727 2.83813 2.3565 3.73 2.288L4.551 2.224L5.451 2.163L6.413 2.106L7.417 2.058C8.2775 2.02063 9.13869 2.0013 10 2ZM8 7.575V12.425C8 12.887 8.5 13.175 8.9 12.945L13.1 10.52C13.1914 10.4674 13.2673 10.3916 13.3201 10.3003C13.3729 10.209 13.4007 10.1055 13.4007 10C13.4007 9.89455 13.3729 9.79096 13.3201 9.69967C13.2673 9.60837 13.1914 9.53261 13.1 9.48L8.9 7.056C8.80876 7.00332 8.70526 6.9756 8.5999 6.97562C8.49455 6.97563 8.39106 7.00339 8.29983 7.0561C8.20861 7.1088 8.13287 7.1846 8.08024 7.27587C8.02761 7.36713 7.99993 7.47064 8 7.576V7.575Z" fill="#5D5D5D"/>
</g>
</g>
<defs>
<clipPath id="clip0_2191_11650">
<rect width="20" height="20" fill="white"/>
</clipPath>
</defs>
</svg>
